<?xml version="1.0" encoding="UTF-8"?>
<svg width="26.458mm" height="26.458mm" version="1.1" viewBox="0 0 26.458 26.458" xmlns="http://www.w3.org/2000/svg" xmlns:cc="http://creativecommons.org/ns#" xmlns:dc="http://purl.org/dc/elements/1.1/" xmlns:rdf="http://www.w3.org/1999/02/22-rdf-syntax-ns#">
 <metadata>
  <rdf:RDF>
   <cc:Work rdf:about="">
    <dc:format>image/svg+xml</dc:format>
    <dc:type rdf:resource="http://purl.org/dc/dcmitype/StillImage"/>
    <dc:title/>
   </cc:Work>
  </rdf:RDF>
 </metadata>
 <g transform="translate(77.41 -2.481)">
  <g transform="matrix(.78125 0 0 .78125 -16.933 6.3305)">
   <path d="m-77.396 12.535-0.01323-0.52917q0-7.0115 4.9609-11.972 4.9609-4.9609 11.972-4.9609 6.9982 0 11.959 4.9609 4.9742 4.9609 4.9742 11.972v0.52917q-0.18521-6.6675-4.9742-11.443-4.9609-4.9609-11.959-4.9609-7.0115 0-11.972 4.9609-4.7757 4.7757-4.9477 11.443" style="fill:#ffd738"/>
   <path d="m-77.396 12.535q0.17198-6.6675 4.9477-11.443 4.9609-4.9609 11.972-4.9609 6.9982 0 11.959 4.9609 4.789 4.7757 4.9742 11.443-0.18521 6.6543-4.9742 11.43-1.0319 1.0451-2.1564 1.8653l-0.58208-1.0583q-3.982-6.9718-9.6308-6.9718t-9.6441 6.9718l-0.33073 0.60854-1.5875-1.4155q-4.7757-4.7757-4.9477-11.43" style="fill:#fc0"/>
   <path d="m-50.673 25.83q-4.273 3.1089-9.8028 3.1089-5.9267 0-10.385-3.5586l0.33073-0.60854q3.9952-6.9718 9.6441-6.9718t9.6308 6.9718l0.58208 1.0583" style="fill:#eebe00"/>
   <path d="m-46.916 12.8q0 1.5081-1.0716 2.54-1.0716 1.0848-2.5797 1.0848-1.4817 0-2.5797-1.0848-1.0451-1.0319-1.0451-2.54 0-1.5214 1.0451-2.5797 1.098-1.0716 2.5797-1.0716 1.5081 0 2.5797 1.0716 1.0716 1.0583 1.0716 2.5797m-1.9976-0.02646q0-0.96573-0.64823-1.614-0.67469-0.67469-1.6404-0.67469-0.92604 0-1.614 0.67469-0.67469 0.64823-0.67469 1.614l0.01323 0.2249q0.06615 0.78052 0.66146 1.3494 0.68792 0.66146 1.614 0.66146 0.96573 0 1.6404-0.66146 0.56885-0.56885 0.635-1.3494l0.01323-0.2249" style="fill:#fff"/>
   <path d="m-48.914 12.773-0.01323 0.2249q-0.06615 0.78052-0.635 1.3494-0.67469 0.66146-1.6404 0.66146-0.92604 0-1.614-0.66146-0.59531-0.56885-0.66146-1.3494l-0.01323-0.2249q0-0.96573 0.67469-1.614 0.68792-0.67469 1.614-0.67469 0.96573 0 1.6404 0.67469 0.64823 0.64823 0.64823 1.614" style="fill:#5b5b5b"/>
   <path d="m-72.038 12.773q0-0.96573 0.64823-1.614 0.67469-0.67469 1.6404-0.67469 0.92604 0 1.614 0.67469 0.67469 0.64823 0.67469 1.614l-0.01323 0.2249q-0.06615 0.78052-0.66146 1.3494-0.68792 0.66146-1.614 0.66146-0.96573 0-1.6404-0.66146-0.56885-0.56885-0.635-1.3494l-0.01323-0.2249" style="fill:#5b5b5b"/>
   <path d="m-74.036 12.8q0-1.5214 1.0716-2.5797 1.0716-1.0716 2.5797-1.0716 1.4817 0 2.5797 1.0716 1.0451 1.0583 1.0451 2.5797 0 1.5081-1.0451 2.54-1.098 1.0848-2.5797 1.0848-1.5081 0-2.5797-1.0848-1.0716-1.0319-1.0716-2.54m1.9976-0.02646 0.01323 0.2249q0.06615 0.78052 0.635 1.3494 0.67469 0.66146 1.6404 0.66146 0.92604 0 1.614-0.66146 0.59531-0.56885 0.66146-1.3494l0.01323-0.2249q0-0.96573-0.67469-1.614-0.68792-0.67469-1.614-0.67469-0.96573 0-1.6404 0.67469-0.64823 0.64823-0.64823 1.614" style="fill:#fff"/>
   <path d="m-66.363 15.194q0.29104-1.8389 1.6669-3.2411 0.34396-0.34396 0.70115-0.59531 1.5346-1.1509 3.5454-1.1509 2.0108 0 3.5454 1.1509l0.67469 0.59531q1.3891 1.4023 1.6669 3.2411-0.13229 0.35719-0.51594 0.68792-0.34396-1.3361-1.4552-2.3812l-0.62177-0.51594q-1.4288-0.99219-3.2941-0.99219-1.8653 0-3.2941 0.99219-0.33073 0.2249-0.64823 0.51594-1.098 1.0451-1.442 2.3812-0.39688-0.3175-0.52917-0.68792" style="fill:#f90"/>
   <path d="m-65.834 15.882q0.34396-1.3361 1.442-2.3812 0.3175-0.29104 0.64823-0.51594 1.4288-0.99219 3.2941-0.99219 1.8653 0 3.2941 0.99219l0.62177 0.51594q1.1112 1.0451 1.4552 2.3812-0.42333 0.34396-1.1509 0.635-1.7462 0.71438-4.2201 0.71438-2.4871 0-4.2466-0.71438-0.7276-0.29104-1.1377-0.635" style="fill:#f39100"/>
   <path d="m-65.834 15.882q0.4101 0.34396 1.1377 0.635 1.7595 0.71438 4.2466 0.71438 2.4739 0 4.2201-0.71438 0.7276-0.29104 1.1509-0.635 0.38365-0.33073 0.51594-0.68792l0.07937 0.97896-0.02646 0.39688q-0.10583 1.3229-1.7198 2.2754-1.7462 1.0186-4.2201 1.0186-2.4871 0-4.2466-1.0186-1.6007-0.9525-1.7198-2.2754l-0.01323-0.39688q0-0.51594 0.06615-0.97896 0.13229 0.37042 0.52917 0.68792" style="fill:#e08600"/>
   <path d="m-56.931-0.57499q1.0319 1.7859 1.2303 3.347 0.23813 1.5478-0.48948 1.9579-0.7276 0.42333-1.9711-0.5424-1.2171-0.96573-2.249-2.7517l-0.23812-0.4101q-0.42333-0.84667-0.3175-1.7198 0.10583-0.96573 0.83344-1.3891 0.7276-0.4101 1.6272-0.026458 0.79375 0.34396 1.3229 1.1377l0.25135 0.39688m-5.2123 2.0373q-0.67469 1.1906-1.5081 1.8256-0.80698 0.64823-1.2832 0.35719-0.47625-0.26458-0.33073-1.2965t0.82021-2.2093l0.15875-0.27781q0.35719-0.52917 0.88636-0.75406 0.59531-0.26458 1.0716 0.013229 0.47625 0.29104 0.55562 0.93927 0.06615 0.55562-0.21167 1.1245l-0.15875 0.27781" style="fill:#eebe00"/>
  </g>
 </g>
</svg>
